# Blender v2.83.5 OBJ File: 'ayam.blend'
# www.blender.org
mtllib ayam.mtl
o Cube
v 0.547661 1.631924 -1.254642
v 0.547661 0.605115 -1.254642
v 0.547661 1.631924 0.967631
v 0.547661 0.605115 0.967631
v -0.547356 1.631924 -1.254642
v -0.547356 0.605115 -1.254642
v -0.547356 0.605115 0.967631
v -0.547356 0.605115 0.000000
v 0.547661 1.631924 0.000000
v -0.547356 1.631924 0.000000
v 0.547661 0.605115 0.000000
v 0.547661 2.641241 0.967631
v -0.547356 2.641241 0.967631
v 0.547661 2.641241 0.000000
v -0.547356 2.641241 0.000000
v 0.558362 1.471178 0.554332
v 0.800830 1.471178 -0.669123
v 0.558362 0.663860 0.554332
v 0.800830 1.471178 0.554332
v 0.800830 0.663860 0.554332
v 0.800830 0.663860 -0.669123
v 0.558362 1.471178 -0.669123
v 0.558362 0.663860 -0.669123
v -0.794140 1.471178 0.554332
v -0.551672 1.471178 -0.669123
v -0.794140 0.663860 0.554332
v -0.551672 1.471178 0.554332
v -0.551672 0.663860 0.554332
v -0.551672 0.663860 -0.669123
v -0.794140 1.471178 -0.669123
v -0.794140 0.663860 -0.669123
v -0.122608 2.101887 1.294393
v -0.122608 2.334689 1.294393
v -0.122608 2.101887 0.957003
v -0.122608 2.334689 0.957003
v 0.110194 2.101887 1.294393
v 0.110194 2.334689 1.294393
v 0.110194 2.101887 0.957003
v 0.110194 2.334689 0.957003
v -0.122608 2.101887 1.135374
v -0.122608 2.334689 1.135374
v 0.110194 2.101887 1.135374
v 0.110194 2.334689 1.135374
v 0.110194 1.889211 0.957003
v -0.122608 1.889211 0.957003
v 0.110194 1.889211 1.135374
v -0.122608 1.889211 1.135374
v 0.648949 2.381260 0.436843
v 0.648949 2.178688 0.436843
v 0.648949 2.381260 0.639415
v 0.648949 2.178688 0.639415
v 0.446377 2.381260 0.436843
v 0.446377 2.178688 0.436843
v 0.446377 2.381260 0.639415
v 0.446377 2.178688 0.639415
v -0.445913 2.381260 0.436843
v -0.445913 2.178688 0.436843
v -0.445913 2.381260 0.639415
v -0.445913 2.178688 0.639415
v -0.648484 2.381260 0.436843
v -0.648484 2.178688 0.436843
v -0.648484 2.381260 0.639415
v -0.648484 2.178688 0.639415
v -0.141151 2.260068 0.826629
v -0.141151 2.832214 0.826629
v -0.141151 2.260068 0.103857
v -0.141151 2.832214 0.103857
v 0.144448 2.260068 0.826629
v 0.144448 2.832214 0.826629
v 0.144448 2.260068 0.103857
v 0.144448 2.832214 0.103857
v -0.305222 1.325083 -1.094320
v -0.305222 1.938825 -1.094320
v -0.305222 1.325083 -1.506699
v 0.308519 1.325083 -1.094320
v 0.308519 1.938825 -1.094320
v 0.308519 1.938825 -1.506699
v 0.131106 0.061090 0.125434
v 0.131106 0.630253 0.125434
v 0.131106 0.061090 -0.143383
v 0.131106 0.630253 -0.143383
v 0.399923 0.061090 0.125434
v 0.399923 0.630253 0.125434
v 0.399923 0.061090 -0.143383
v 0.399923 0.630253 -0.143383
v -0.396404 0.061090 0.125434
v -0.396404 0.630253 0.125434
v -0.396404 0.061090 -0.143383
v -0.396404 0.630253 -0.143383
v -0.127587 0.061090 0.125434
v -0.127587 0.630253 0.125434
v -0.127587 0.061090 -0.143383
v -0.127587 0.630253 -0.143383
v -0.547356 1.631924 0.967631
v -0.305222 1.938825 -1.506699
v 0.308519 1.325083 -1.506699
vt 0.125000 0.500000
vt 0.375000 0.500000
vt 0.375000 0.750000
vt 0.125000 0.750000
vt 0.375000 0.250000
vt 0.625000 0.250000
vt 0.625000 0.500000
vt 0.375000 0.500000
vt 0.375000 0.117830
vt 0.625000 0.117830
vt 0.625000 0.250000
vt 0.375000 0.250000
vt 0.625000 0.500000
vt 0.375000 0.500000
vt 0.375000 0.632170
vt 0.625000 0.632170
vt 0.625000 0.750000
vt 0.375000 0.750000
vt 0.625000 1.000000
vt 0.375000 1.000000
vt 0.125000 0.632170
vt 0.125000 0.750000
vt 0.875000 0.632170
vt 0.875000 0.750000
vt 0.875000 0.500000
vt 0.375000 0.000000
vt 0.625000 0.000000
vt 0.375000 0.500000
vt 0.375000 0.250000
vt 0.375000 0.500000
vt 0.625000 0.500000
vt 0.625000 0.750000
vt 0.375000 0.750000
vt 0.375000 0.000000
vt 0.625000 0.000000
vt 0.625000 0.250000
vt 0.375000 0.250000
vt 0.125000 0.500000
vt 0.375000 0.500000
vt 0.375000 0.750000
vt 0.125000 0.750000
vt 0.375000 0.000000
vt 0.625000 0.000000
vt 0.625000 0.250000
vt 0.375000 0.250000
vt 0.625000 0.500000
vt 0.375000 0.500000
vt 0.625000 0.750000
vt 0.375000 0.750000
vt 0.625000 1.000000
vt 0.375000 1.000000
vt 0.125000 0.500000
vt 0.125000 0.750000
vt 0.875000 0.500000
vt 0.875000 0.750000
vt 0.375000 0.000000
vt 0.625000 0.000000
vt 0.625000 0.250000
vt 0.375000 0.250000
vt 0.625000 0.500000
vt 0.375000 0.500000
vt 0.625000 0.750000
vt 0.375000 0.750000
vt 0.625000 1.000000
vt 0.375000 1.000000
vt 0.125000 0.500000
vt 0.125000 0.750000
vt 0.875000 0.500000
vt 0.875000 0.750000
vt 0.625000 0.125000
vt 0.625000 0.000000
vt 0.625000 0.000000
vt 0.625000 0.125000
vt 0.375000 0.125000
vt 0.625000 0.250000
vt 0.375000 0.250000
vt 0.125000 0.625000
vt 0.375000 0.625000
vt 0.375000 0.750000
vt 0.125000 0.750000
vt 0.625000 0.625000
vt 0.625000 0.750000
vt 0.625000 0.500000
vt 0.375000 0.500000
vt 0.125000 0.500000
vt 0.375000 0.000000
vt 0.875000 0.500000
vt 0.875000 0.625000
vt 0.625000 0.625000
vt 0.875000 0.625000
vt 0.875000 0.750000
vt 0.625000 0.750000
vt 0.625000 1.000000
vt 0.625000 1.000000
vt 0.375000 0.000000
vt 0.625000 0.000000
vt 0.625000 0.250000
vt 0.375000 0.250000
vt 0.375000 0.250000
vt 0.625000 0.250000
vt 0.625000 0.500000
vt 0.375000 0.500000
vt 0.375000 0.500000
vt 0.625000 0.500000
vt 0.625000 0.750000
vt 0.375000 0.750000
vt 0.375000 0.750000
vt 0.625000 0.750000
vt 0.625000 1.000000
vt 0.375000 1.000000
vt 0.625000 0.500000
vt 0.875000 0.500000
vt 0.875000 0.750000
vt 0.625000 0.750000
vt 0.375000 0.000000
vt 0.625000 0.000000
vt 0.625000 0.250000
vt 0.375000 0.250000
vt 0.375000 0.500000
vt 0.625000 0.500000
vt 0.625000 0.750000
vt 0.375000 0.750000
vt 0.375000 0.750000
vt 0.625000 0.750000
vt 0.625000 1.000000
vt 0.375000 1.000000
vt 0.125000 0.500000
vt 0.375000 0.500000
vt 0.375000 0.750000
vt 0.125000 0.750000
vt 0.625000 0.500000
vt 0.875000 0.500000
vt 0.875000 0.750000
vt 0.625000 0.750000
vt 0.375000 0.000000
vt 0.625000 0.000000
vt 0.625000 0.250000
vt 0.375000 0.250000
vt 0.375000 0.500000
vt 0.625000 0.500000
vt 0.625000 0.750000
vt 0.375000 0.750000
vt 0.625000 1.000000
vt 0.375000 1.000000
vt 0.125000 0.500000
vt 0.125000 0.750000
vt 0.875000 0.500000
vt 0.875000 0.750000
vt 0.375000 1.000000
vt 0.125000 0.632170
vt 0.375000 0.632170
vt 0.125000 0.500000
vt 0.375000 0.117830
vt 0.375000 0.000000
vt 0.625000 0.000000
vt 0.625000 0.250000
vt 0.375000 0.250000
vt 0.625000 0.500000
vt 0.625000 0.750000
vt 0.625000 1.000000
vt 0.375000 1.000000
vt 0.875000 0.500000
vt 0.875000 0.750000
vt 0.375000 0.000000
vt 0.625000 0.000000
vt 0.625000 0.250000
vt 0.375000 0.250000
vt 0.625000 1.000000
vt 0.375000 1.000000
vt 0.125000 0.500000
vt 0.125000 0.750000
vt 0.875000 0.500000
vt 0.875000 0.750000
vt 0.625000 0.500000
vt 0.375000 0.500000
vt 0.625000 0.750000
vt 0.375000 0.750000
vt 0.625000 1.000000
vt 0.375000 1.000000
vt 0.125000 0.500000
vt 0.125000 0.750000
vt 0.875000 0.500000
vt 0.875000 0.750000
vn -1.0000 0.0000 0.0000
vn 1.0000 0.0000 0.0000
vn 0.0000 0.0000 -1.0000
vn 0.0000 0.0000 1.0000
vn 0.0000 -1.0000 0.0000
vn 0.0000 1.0000 0.0000
usemtl oren
s off
f 18/1/1 16/2/1 22/3/1 23/4/1
f 29/5/2 25/6/2 27/7/2 28/8/2
f 40/9/1 41/10/1 35/11/1 34/12/1
f 34/12/3 35/11/3 39/13/3 38/14/3
f 42/15/2 43/16/2 37/17/2 36/18/2
f 36/18/4 37/17/4 33/19/4 32/20/4
f 40/21/5 42/15/5 36/18/5 32/22/5
f 43/16/6 41/23/6 33/24/6 37/17/6
f 39/13/6 35/25/6 41/23/6 43/16/6
f 38/14/2 39/13/2 43/16/2 42/15/2
f 32/26/1 33/27/1 41/10/1 40/9/1
f 34/12/3 38/14/3 44/28/3 45/29/3
f 54/30/2 55/31/2 53/32/2 52/33/2
f 56/34/1 57/35/1 59/36/1 58/37/1
f 66/38/5 70/39/5 68/40/5 64/41/5
f 78/42/1 79/43/1 81/44/1 80/45/1
f 80/45/3 81/44/3 85/46/3 84/47/3
f 84/47/2 85/46/2 83/48/2 82/49/2
f 82/49/4 83/48/4 79/50/4 78/51/4
f 80/52/5 84/47/5 82/49/5 78/53/5
f 85/46/6 81/54/6 79/55/6 83/48/6
f 86/56/1 87/57/1 89/58/1 88/59/1
f 88/59/3 89/58/3 93/60/3 92/61/3
f 92/61/2 93/60/2 91/62/2 90/63/2
f 90/63/4 91/62/4 87/64/4 86/65/4
f 88/66/5 92/61/5 90/63/5 86/67/5
f 93/60/6 89/68/6 87/69/6 91/62/6
usemtl putih
f 10/70/1 94/71/1 13/72/1 15/73/1
f 8/74/1 10/70/1 5/75/1 6/76/1
f 8/77/5 11/78/5 4/79/5 7/80/5
f 11/78/2 9/81/2 3/82/2 4/79/2
f 6/76/3 5/75/3 1/83/3 2/84/3
f 2/84/2 1/83/2 9/81/2 11/78/2
f 6/85/5 2/84/5 11/78/5 8/77/5
f 7/86/1 94/71/1 10/70/1 8/74/1
f 1/83/6 5/87/6 10/88/6 9/81/6
f 14/89/6 15/90/6 13/91/6 12/92/6
f 9/81/3 10/88/3 15/90/3 14/89/3
f 94/93/4 3/82/4 12/92/4 13/94/4
f 3/82/2 9/81/2 14/89/2 12/92/2
f 23/95/5 21/96/5 20/97/5 18/98/5
f 21/99/2 17/100/2 19/101/2 20/102/2
f 23/103/3 22/104/3 17/105/3 21/106/3
f 17/107/6 22/108/6 16/109/6 19/110/6
f 20/111/4 19/112/4 16/113/4 18/114/4
f 31/115/5 29/116/5 28/117/5 26/118/5
f 31/119/3 30/120/3 25/121/3 29/122/3
f 25/123/6 30/124/6 24/125/6 27/126/6
f 26/127/1 24/128/1 30/129/1 31/130/1
f 28/131/4 27/132/4 24/133/4 26/134/4
f 72/135/1 73/136/1 95/137/1 74/138/1
f 96/139/2 77/140/2 76/141/2 75/142/2
f 75/142/4 76/141/4 73/143/4 72/144/4
f 74/145/5 96/139/5 75/142/5 72/146/5
f 77/140/6 95/147/6 73/148/6 76/141/6
f 4/79/4 3/82/4 94/93/4 7/149/4
f 74/138/3 95/137/3 77/140/3 96/139/3
usemtl merah
f 42/15/4 40/21/4 47/150/4 46/151/4
f 45/152/5 44/28/5 46/151/5 47/150/5
f 38/14/2 42/15/2 46/151/2 44/28/2
f 40/9/1 34/12/1 45/29/1 47/153/1
f 64/154/1 65/155/1 67/156/1 66/157/1
f 66/157/3 67/156/3 71/158/3 70/39/3
f 70/39/2 71/158/2 69/159/2 68/40/2
f 68/40/4 69/159/4 65/160/4 64/161/4
f 71/158/6 67/162/6 65/163/6 69/159/6
usemtl item
f 48/164/1 49/165/1 51/166/1 50/167/1
f 50/167/3 51/166/3 55/31/3 54/30/3
f 52/33/4 53/32/4 49/168/4 48/169/4
f 50/170/5 54/30/5 52/33/5 48/171/5
f 55/31/6 51/172/6 49/173/6 53/32/6
f 58/37/3 59/36/3 63/174/3 62/175/3
f 62/175/2 63/174/2 61/176/2 60/177/2
f 60/177/4 61/176/4 57/178/4 56/179/4
f 58/180/5 62/175/5 60/177/5 56/181/5
f 63/174/6 59/182/6 57/183/6 61/176/6
